# xmcd
#
# Track frame offsets: 
#        150
#        8248
#        21916
#        40296
#        56746
#        71313
#        82625
#        99310
#        112813
#        143714
#        165724
#        182409
#        201634
#        217882
#        232245
#        242755
#        261286
#        272803
#        287964
#        315832
#
# Disc length: 4493 seconds
#
# Revision: 0
# Processed by: cddbd v1.5.2PL0 Copyright (c) Steve Scherf et al.
# Submitted via: ExactAudioCopy v0.95a3
#
DISCID=15118b14
DTITLE=Various Artist - Papa was a rodeo
DYEAR=1900
DGENRE=Alternative Country
TTITLE0=Hayman, Watkins, Trout and Lee - Beulah Crossing the Marshes
TTITLE1=Jason and the Scorchers - Shot down again
TTITLE2=Sen Volt - Methamphetamine
TTITLE3=Orillia Opry - Riverside 2
TTITLE4=The Castanets - This is early game
TTITLE5=Turner Cody - My Lady went away
TTITLE6=The Mountain Goats - Sax Roamer #1
TTITLE7=Emmy the great - We almost had a baby
TTITLE8=Stephen Malkmus and the Million Dollar Bashers - Ballad of a t
TTITLE8=hin Man
TTITLE9=Amor Belhem Duo - Fucking and Songs
TTITLE10=The Felice Brothers - Love me tenderly
TTITLE11=Geoff Barner - Clown and Bard
TTITLE12=The Byrds - Hickery Wind
TTITLE13=The Jayhawks - Blue
TTITLE14=Hello Saferide - The Quiz
TTITLE15=Blitzen Trapper - Furr
TTITLE16=Vandaveer - How many takes it takes
TTITLE17=AA Bondy - Rapture (Sweet Rapture)
TTITLE18=Scout Niblett and Will Oldham - Kiss
TTITLE19=M. Ward, Conor Oberst and Jim James - Girl from the North Count
TTITLE19=ry
EXTD=
EXTT0=
EXTT1=
EXTT2=
EXTT3=
EXTT4=
EXTT5=
EXTT6=
EXTT7=
EXTT8=
EXTT9=
EXTT10=
EXTT11=
EXTT12=
EXTT13=
EXTT14=
EXTT15=
EXTT16=
EXTT17=
EXTT18=
EXTT19=
PLAYORDER=
